# Blender v2.79 (sub 0) OBJ File: ''
# www.blender.org
o arrow
v 0.015024 0.000000 0.015024
v 0.015024 0.875000 0.015024
v 0.035355 0.875000 0.035355
v 0.000000 0.000000 0.021247
v 0.000000 0.875000 0.021247
v -0.015024 0.000000 0.015024
v -0.015024 0.875000 0.015024
v 0.000000 0.875000 0.050000
v -0.035355 0.875000 0.035355
v 0.015024 0.000000 -0.015024
v 0.015024 0.875000 -0.015024
v 0.021247 0.000000 0.000000
v 0.021247 0.875000 0.000000
v 0.050000 0.875000 0.000000
v 0.035355 0.875000 -0.035355
v 0.000000 0.000000 -0.021247
v 0.000000 0.875000 -0.021247
v 0.000000 0.000000 0.000000
v 0.000000 1.000000 0.000000
v -0.015024 0.000000 -0.015024
v -0.015024 0.875000 -0.015024
v -0.021247 0.000000 0.000000
v -0.021247 0.875000 0.000000
v 0.000000 0.875000 -0.050000
v -0.050000 0.875000 0.000000
v -0.035355 0.875000 -0.035355
vt 0.712472 0.875000
vt 0.650239 0.000000
vt 0.712472 0.000000
vt 0.650239 0.875000
vt 0.500000 0.000000
vt 0.500000 0.000000
vt 0.853554 0.875000
vt 0.500000 0.875000
vt 0.500000 1.000000
vt 0.500000 0.875000
vt 1.000000 0.875000
vt 0.349761 0.000000
vt 0.287527 0.875000
vt 0.287527 0.000000
vt 0.349761 0.875000
vt 0.146446 0.875000
vt 0.000000 0.875000
vt 0.650239 0.000000
vt 0.500000 0.000000
vt 0.650239 0.875000
vt 0.853554 0.875000
vt 0.500000 0.875000
vt 0.500000 0.875000
vt 0.349761 0.000000
vt 0.349761 0.875000
vt 0.146446 0.875000
vn 0.9239 0.0000 0.3827
vn 0.3827 0.0000 0.9239
vn 0.0000 -1.0000 0.0000
vn 0.3590 0.3466 0.8666
vn 0.8666 0.3466 0.3590
vn 1.0000 0.0000 0.0000
vn -0.9239 0.0000 0.3827
vn -0.3827 0.0000 0.9239
vn -0.3590 0.3466 0.8666
vn -0.8666 0.3466 0.3590
vn 0.0000 0.0000 1.0000
vn 0.9239 0.0000 -0.3827
vn 0.3827 0.0000 -0.9239
vn 0.3590 0.3466 -0.8666
vn 0.8666 0.3466 -0.3590
vn -0.9239 0.0000 -0.3827
vn -0.3827 0.0000 -0.9239
vn -0.3590 0.3466 -0.8666
vn -0.8666 0.3466 -0.3590
s off
f 13/1/1 1/2/1 12/3/1
f 2/4/2 4/5/2 1/2/2
f 18/6/3 1/2/3 4/5/3
f 13/1/3 3/7/3 2/4/3
f 8/8/4 3/7/4 19/9/4
f 3/7/3 5/10/3 2/4/3
f 19/9/5 3/7/5 14/11/5
f 18/6/6 19/9/6 5/10/6
f 6/12/7 23/13/7 22/14/7
f 4/5/8 7/15/8 6/12/8
f 18/6/3 6/12/3 22/14/3
f 23/13/3 9/16/3 25/17/3
f 8/8/9 19/9/9 9/16/9
f 5/10/3 9/16/3 7/15/3
f 19/9/10 25/17/10 9/16/10
f 12/3/11 13/1/11 18/6/11
f 10/18/12 13/1/12 12/3/12
f 16/19/13 11/20/13 10/18/13
f 18/6/3 10/18/3 12/3/3
f 13/1/3 15/21/3 14/11/3
f 24/22/14 19/9/14 15/21/14
f 17/23/3 15/21/3 11/20/3
f 19/9/15 14/11/15 15/21/15
f 17/23/6 19/9/6 18/6/6
f 19/9/11 23/13/11 18/6/11
f 23/13/16 20/24/16 22/14/16
f 21/25/17 16/19/17 20/24/17
f 18/6/3 20/24/3 16/19/3
f 23/13/3 26/26/3 21/25/3
f 24/22/18 26/26/18 19/9/18
f 26/26/3 17/23/3 21/25/3
f 19/9/19 26/26/19 25/17/19
f 13/1/1 2/4/1 1/2/1
f 2/4/2 5/10/2 4/5/2
f 18/6/3 12/3/3 1/2/3
f 13/1/3 14/11/3 3/7/3
f 3/7/3 8/8/3 5/10/3
f 5/10/6 4/5/6 18/6/6
f 19/9/6 8/8/6 5/10/6
f 6/12/7 7/15/7 23/13/7
f 4/5/8 5/10/8 7/15/8
f 18/6/3 4/5/3 6/12/3
f 23/13/3 7/15/3 9/16/3
f 5/10/3 8/8/3 9/16/3
f 19/9/11 18/6/11 13/1/11
f 13/1/11 14/11/11 19/9/11
f 10/18/12 11/20/12 13/1/12
f 16/19/13 17/23/13 11/20/13
f 18/6/3 16/19/3 10/18/3
f 13/1/3 11/20/3 15/21/3
f 17/23/3 24/22/3 15/21/3
f 18/6/6 16/19/6 17/23/6
f 17/23/6 24/22/6 19/9/6
f 22/14/11 18/6/11 23/13/11
f 19/9/11 25/17/11 23/13/11
f 23/13/16 21/25/16 20/24/16
f 21/25/17 17/23/17 16/19/17
f 18/6/3 22/14/3 20/24/3
f 23/13/3 25/17/3 26/26/3
f 26/26/3 24/22/3 17/23/3
