# Blender v2.79 (sub 0) OBJ File: ''
# www.blender.org
o missile
v 0.160576 0.682743 0.000000
v 0.148353 0.682743 0.061450
v 0.148353 -0.780808 0.061450
v 0.148353 -1.000000 0.061450
v 0.160576 -1.000000 -0.000000
v 0.113544 0.682743 0.113544
v 0.113544 -0.414977 0.113544
v 0.151564 0.762057 0.000000
v 0.140027 0.762057 0.058001
v 0.061450 0.682743 0.148353
v 0.061450 -0.780808 0.148353
v 0.107172 0.762057 0.107172
v 0.000000 0.682743 0.160576
v 0.000000 -1.000000 0.160576
v 0.061450 -1.000000 0.148353
v 0.058001 0.762057 0.140027
v 0.000000 0.762057 0.151564
v 0.000000 1.000000 0.000000
v 0.000000 0.920686 0.069758
v 0.026696 0.920686 0.064448
v 0.000000 0.841372 0.120590
v 0.046148 0.841372 0.111411
v 0.049327 0.920686 0.049327
v 0.085271 0.841372 0.085270
v 0.064449 0.920686 0.026695
v 0.111411 0.841372 0.046148
v 0.069759 0.920686 0.000000
v 0.120591 0.841372 0.000000
v 0.000000 -1.000000 -0.000000
v 0.113544 -1.000000 0.113544
v 0.113544 -0.818276 0.113544
v 0.251198 -0.781182 0.251198
v -0.160576 0.682743 0.000000
v -0.160576 -1.000000 -0.000000
v -0.148353 -1.000000 0.061450
v -0.148353 -0.780808 0.061450
v -0.148353 0.682743 0.061450
v -0.113544 -0.414977 0.113544
v -0.113544 0.682743 0.113544
v -0.151564 0.762057 0.000000
v -0.140027 0.762057 0.058001
v -0.061450 -0.780808 0.148353
v -0.061450 0.682743 0.148353
v -0.107172 0.762057 0.107172
v -0.061450 -1.000000 0.148353
v -0.058001 0.762057 0.140027
v -0.026696 0.920686 0.064448
v -0.046148 0.841372 0.111411
v -0.049327 0.920686 0.049327
v -0.085271 0.841372 0.085270
v -0.064449 0.920686 0.026695
v -0.111411 0.841372 0.046148
v -0.069759 0.920686 0.000000
v -0.120591 0.841372 0.000000
v -0.113544 -1.000000 0.113544
v -0.113544 -0.818276 0.113544
v -0.251198 -0.781182 0.251198
v 0.148353 -1.000000 -0.061450
v 0.148353 -0.780808 -0.061450
v 0.148353 0.682743 -0.061450
v 0.113544 -0.414977 -0.113544
v 0.113544 0.682743 -0.113544
v 0.140027 0.762057 -0.058001
v 0.061450 -0.780808 -0.148353
v 0.061450 0.682743 -0.148353
v 0.107172 0.762057 -0.107172
v 0.061450 -1.000000 -0.148353
v 0.000000 -1.000000 -0.160576
v 0.000000 0.682743 -0.160576
v 0.058001 0.762057 -0.140027
v 0.000000 0.762057 -0.151564
v 0.026696 0.920686 -0.064448
v 0.000000 0.920686 -0.069758
v 0.046148 0.841372 -0.111411
v 0.000000 0.841372 -0.120590
v 0.049327 0.920686 -0.049327
v 0.085271 0.841372 -0.085270
v 0.064449 0.920686 -0.026695
v 0.111411 0.841372 -0.046148
v 0.113544 -1.000000 -0.113544
v 0.113544 -0.818276 -0.113544
v 0.251198 -0.781182 -0.251198
v -0.148353 0.682743 -0.061450
v -0.148353 -0.780808 -0.061450
v -0.148353 -1.000000 -0.061450
v -0.113544 0.682743 -0.113544
v -0.113544 -0.414977 -0.113544
v -0.140027 0.762057 -0.058001
v -0.061450 0.682743 -0.148353
v -0.061450 -0.780808 -0.148353
v -0.107172 0.762057 -0.107172
v -0.061450 -1.000000 -0.148353
v -0.058001 0.762057 -0.140027
v -0.026696 0.920686 -0.064448
v -0.046148 0.841372 -0.111411
v -0.049327 0.920686 -0.049327
v -0.085271 0.841372 -0.085270
v -0.064449 0.920686 -0.026695
v -0.111411 0.841372 -0.046148
v -0.113544 -1.000000 -0.113544
v -0.113544 -0.818276 -0.113544
v -0.251198 -0.781182 -0.251198
vt 0.750000 0.875000
vt 0.750000 0.187816
vt 1.000000 0.875000
vt 0.500000 0.375000
vt 0.750000 0.906250
vt 1.000000 0.906250
vt 0.250000 0.875000
vt 0.500000 0.875000
vt 0.000000 0.062500
vt 0.250000 0.062500
vt 0.250000 0.187184
vt 0.250000 0.906250
vt 0.500000 0.906250
vt 0.000000 0.875000
vt 0.500000 1.000000
vt 0.000000 0.968750
vt 0.250000 0.968750
vt 0.000000 0.937500
vt 0.250000 0.937500
vt 0.000000 0.906250
vt 0.500000 0.968750
vt 0.500000 0.937500
vt 0.750000 0.968750
vt 0.750000 0.937500
vt 1.000000 0.968750
vt 1.000000 0.937500
vt 0.500000 0.000000
vt 0.500000 0.062500
vt 0.750000 0.062500
vt 1.000000 0.062500
vt 0.500000 0.156250
vt 0.500000 0.187500
vt 1.000000 0.062500
vt 0.750000 0.187816
vt 1.000000 0.875000
vt 0.750000 0.875000
vt 0.500000 0.375000
vt 0.500000 0.875000
vt 0.750000 0.906250
vt 1.000000 0.906250
vt 0.250000 0.875000
vt 0.500000 0.906250
vt 0.250000 0.187184
vt 0.250000 0.906250
vt 0.250000 0.968750
vt 0.250000 0.937500
vt 0.500000 0.968750
vt 0.500000 0.937500
vt 0.750000 0.968750
vt 0.750000 0.937500
vt 1.000000 0.968750
vt 1.000000 0.937500
vt 0.250000 0.062500
vt 0.500000 0.062500
vt 0.750000 0.062500
vt 0.500000 0.156250
vt 0.500000 0.187500
vt 0.750000 0.187816
vt 0.750000 0.875000
vt 0.500000 0.375000
vt 0.500000 0.875000
vt 0.750000 0.906250
vt 0.250000 0.875000
vt 0.500000 0.906250
vt 0.250000 0.187184
vt 0.000000 0.062500
vt 0.000000 0.875000
vt 0.250000 0.906250
vt 0.000000 0.906250
vt 0.250000 0.968750
vt 0.000000 0.968750
vt 0.000000 0.937500
vt 0.250000 0.937500
vt 0.500000 0.968750
vt 0.500000 0.937500
vt 0.750000 0.968750
vt 0.750000 0.937500
vt 0.250000 0.062500
vt 0.500000 0.062500
vt 0.750000 0.062500
vt 0.500000 0.156250
vt 0.500000 0.187500
vt 0.750000 0.875000
vt 0.750000 0.187816
vt 0.500000 0.375000
vt 0.750000 0.906250
vt 0.250000 0.875000
vt 0.500000 0.875000
vt 0.500000 0.906250
vt 0.250000 0.062500
vt 0.250000 0.187184
vt 0.250000 0.906250
vt 0.250000 0.968750
vt 0.250000 0.937500
vt 0.500000 0.968750
vt 0.500000 0.937500
vt 0.750000 0.968750
vt 0.750000 0.937500
vt 0.500000 0.062500
vt 0.750000 0.062500
vt 0.500000 0.156250
vt 0.500000 0.187500
vn 0.9808 -0.0000 0.1951
vn 0.8315 -0.0000 0.5556
vn 0.9748 0.1108 0.1939
vn 0.5556 -0.0000 0.8315
vn 0.8264 0.1108 0.5522
vn 0.8263 0.1108 0.5522
vn 0.1951 -0.0000 0.9808
vn 0.5522 0.1108 0.8264
vn 0.5522 0.1107 0.8264
vn 0.1939 0.1108 0.9748
vn 0.1477 0.6532 0.7427
vn 0.1652 0.5322 0.8304
vn 0.1822 0.3577 0.9159
vn 0.4207 0.6532 0.6296
vn 0.4704 0.5322 0.7040
vn 0.5188 0.3577 0.7765
vn 0.6296 0.6532 0.4207
vn 0.7040 0.5322 0.4704
vn 0.7765 0.3577 0.5188
vn 0.7427 0.6532 0.1477
vn 0.8304 0.5322 0.1652
vn 0.9159 0.3577 0.1822
vn 0.0000 -1.0000 0.0000
vn 0.4912 -0.8288 -0.2679
vn -0.4709 0.1498 0.8694
vn 0.8694 0.1498 -0.4709
vn -0.2679 -0.8288 0.4912
vn -0.9808 -0.0000 0.1951
vn -0.8315 -0.0000 0.5556
vn -0.9748 0.1108 0.1939
vn -0.5556 -0.0000 0.8315
vn -0.8264 0.1108 0.5522
vn -0.8264 0.1107 0.5522
vn -0.1951 -0.0000 0.9808
vn -0.5522 0.1108 0.8264
vn -0.5522 0.1107 0.8264
vn -0.1939 0.1108 0.9748
vn -0.1477 0.6532 0.7427
vn -0.1652 0.5322 0.8304
vn -0.1822 0.3577 0.9159
vn -0.4207 0.6532 0.6296
vn -0.4704 0.5322 0.7040
vn -0.5188 0.3577 0.7765
vn -0.6296 0.6532 0.4207
vn -0.7040 0.5322 0.4704
vn -0.7765 0.3577 0.5188
vn -0.7427 0.6532 0.1477
vn -0.8304 0.5322 0.1652
vn -0.9159 0.3577 0.1822
vn -0.4912 -0.8288 -0.2679
vn 0.4709 0.1498 0.8694
vn -0.8694 0.1498 -0.4709
vn 0.2679 -0.8288 0.4912
vn 0.9808 0.0000 -0.1951
vn 0.8315 0.0000 -0.5556
vn 0.9748 0.1108 -0.1939
vn 0.5556 0.0000 -0.8315
vn 0.8264 0.1108 -0.5522
vn 0.1951 0.0000 -0.9808
vn 0.5522 0.1108 -0.8264
vn 0.5522 0.1107 -0.8264
vn 0.1939 0.1108 -0.9748
vn 0.1477 0.6532 -0.7427
vn 0.1652 0.5322 -0.8304
vn 0.1822 0.3577 -0.9159
vn 0.4207 0.6532 -0.6296
vn 0.4704 0.5322 -0.7040
vn 0.5188 0.3577 -0.7765
vn 0.6296 0.6532 -0.4207
vn 0.7040 0.5322 -0.4704
vn 0.7765 0.3577 -0.5188
vn 0.7427 0.6532 -0.1477
vn 0.8304 0.5322 -0.1652
vn 0.9159 0.3577 -0.1822
vn 0.4912 -0.8288 0.2679
vn -0.4709 0.1498 -0.8694
vn 0.8694 0.1498 0.4709
vn -0.2679 -0.8288 -0.4912
vn -0.9808 0.0000 -0.1951
vn -0.8315 0.0000 -0.5556
vn -0.9748 0.1108 -0.1939
vn -0.5556 0.0000 -0.8315
vn -0.8264 0.1108 -0.5522
vn -0.1951 0.0000 -0.9808
vn -0.5522 0.1108 -0.8264
vn -0.5522 0.1107 -0.8264
vn -0.1939 0.1108 -0.9748
vn -0.1477 0.6532 -0.7427
vn -0.1652 0.5322 -0.8304
vn -0.1822 0.3577 -0.9159
vn -0.4207 0.6532 -0.6296
vn -0.4704 0.5322 -0.7040
vn -0.5188 0.3577 -0.7765
vn -0.6296 0.6532 -0.4207
vn -0.7040 0.5322 -0.4704
vn -0.7765 0.3577 -0.5188
vn -0.7427 0.6532 -0.1477
vn -0.8304 0.5322 -0.1652
vn -0.9159 0.3577 -0.1822
vn -0.4912 -0.8288 0.2679
vn 0.4709 0.1498 -0.8694
vn -0.8694 0.1498 0.4709
vn 0.2679 -0.8288 -0.4912
vn 0.8264 0.1107 0.5522
vn 0.5522 0.1108 0.8263
vn -0.8263 0.1108 0.5522
vn -0.5522 0.1108 0.8263
vn 0.8263 0.1107 -0.5522
vn 0.5522 0.1108 -0.8263
vn -0.8263 0.1107 -0.5522
vn -0.5522 0.1108 -0.8263
s 1
f 2/1/1 3/2/1 1/3/1
f 2/1/2 7/4/2 3/2/2
f 9/5/3 1/3/3 8/6/3
f 10/7/4 7/4/4 6/8/4
f 9/5/5 6/8/5 2/1/6
f 14/9/7 15/10/7 11/11/7
f 16/12/8 6/8/8 12/13/9
f 16/12/10 13/14/10 10/7/10
f 18/15/11 19/16/11 20/17/11
f 20/17/12 21/18/12 22/19/12
f 22/19/13 17/20/13 16/12/13
f 18/15/14 20/17/14 23/21/14
f 23/21/15 22/19/15 24/22/15
f 22/19/16 12/13/16 24/22/16
f 18/15/17 23/21/17 25/23/17
f 23/21/18 26/24/18 25/23/18
f 24/22/19 9/5/19 26/24/19
f 18/15/20 25/23/20 27/25/20
f 27/25/21 26/24/21 28/26/21
f 28/26/22 9/5/22 8/6/22
f 14/9/23 29/27/23 15/10/23
f 15/10/23 29/27/23 30/28/23
f 30/28/23 29/27/23 4/29/23
f 4/29/23 29/27/23 5/30/23
f 31/31/2 4/29/2 3/2/2
f 31/31/24 3/2/24 32/32/24
f 7/4/25 11/11/25 32/32/25
f 31/31/4 15/10/4 30/28/4
f 32/32/26 3/2/26 7/4/26
f 32/32/27 11/11/27 31/31/27
f 34/33/28 36/34/28 33/35/28
f 37/36/29 38/37/29 39/38/29
f 33/35/30 41/39/30 40/40/30
f 38/37/31 43/41/31 39/38/31
f 41/39/32 39/38/32 44/42/33
f 42/43/34 14/9/34 13/14/34
f 39/38/35 46/44/35 44/42/36
f 46/44/37 13/14/37 17/20/37
f 18/15/38 47/45/38 19/16/38
f 47/45/39 21/18/39 19/16/39
f 48/46/40 17/20/40 21/18/40
f 18/15/41 49/47/41 47/45/41
f 49/47/42 48/46/42 47/45/42
f 44/42/43 48/46/43 50/48/43
f 18/15/44 51/49/44 49/47/44
f 52/50/45 49/47/45 51/49/45
f 41/39/46 50/48/46 52/50/46
f 18/15/47 53/51/47 51/49/47
f 53/51/48 52/50/48 51/49/48
f 54/52/49 41/39/49 52/50/49
f 14/9/23 45/53/23 29/27/23
f 45/53/23 55/54/23 29/27/23
f 55/54/23 35/55/23 29/27/23
f 35/55/23 34/33/23 29/27/23
f 35/55/29 56/56/29 36/34/29
f 56/56/50 57/57/50 36/34/50
f 38/37/51 57/57/51 42/43/51
f 56/56/31 45/53/31 42/43/31
f 57/57/52 38/37/52 36/34/52
f 57/57/53 56/56/53 42/43/53
f 5/30/54 59/58/54 1/3/54
f 60/59/55 61/60/55 62/61/55
f 1/3/56 63/62/56 8/6/56
f 61/60/57 65/63/57 62/61/57
f 60/59/58 66/64/58 63/62/58
f 64/65/59 68/66/59 69/67/59
f 62/61/60 70/68/60 66/64/61
f 70/68/62 69/67/62 71/69/62
f 18/15/63 72/70/63 73/71/63
f 72/70/64 75/72/64 73/71/64
f 74/73/65 71/69/65 75/72/65
f 18/15/66 76/74/66 72/70/66
f 76/74/67 74/73/67 72/70/67
f 66/64/68 74/73/68 77/75/68
f 18/15/69 78/76/69 76/74/69
f 79/77/70 76/74/70 78/76/70
f 63/62/71 77/75/71 79/77/71
f 18/15/72 27/25/72 78/76/72
f 27/25/73 79/77/73 78/76/73
f 28/26/74 63/62/74 79/77/74
f 68/66/23 67/78/23 29/27/23
f 67/78/23 80/79/23 29/27/23
f 80/79/23 58/80/23 29/27/23
f 58/80/23 5/30/23 29/27/23
f 58/80/55 81/81/55 59/58/55
f 81/81/75 82/82/75 59/58/75
f 61/60/76 82/82/76 64/65/76
f 81/81/57 67/78/57 64/65/57
f 82/82/77 61/60/77 59/58/77
f 82/82/78 81/81/78 64/65/78
f 83/83/79 84/84/79 33/35/79
f 83/83/80 87/85/80 84/84/80
f 88/86/81 33/35/81 40/40/81
f 89/87/82 87/85/82 86/88/82
f 91/89/83 83/83/83 88/86/83
f 68/66/84 92/90/84 90/91/84
f 93/92/85 86/88/85 91/89/86
f 93/92/87 69/67/87 89/87/87
f 18/15/88 73/71/88 94/93/88
f 94/93/89 75/72/89 95/94/89
f 95/94/90 71/69/90 93/92/90
f 18/15/91 94/93/91 96/95/91
f 96/95/92 95/94/92 97/96/92
f 95/94/93 91/89/93 97/96/93
f 18/15/94 96/95/94 98/97/94
f 96/95/95 99/98/95 98/97/95
f 97/96/96 88/86/96 99/98/96
f 18/15/97 98/97/97 53/51/97
f 53/51/98 99/98/98 54/52/98
f 54/52/99 88/86/99 40/40/99
f 68/66/23 29/27/23 92/90/23
f 92/90/23 29/27/23 100/99/23
f 100/99/23 29/27/23 85/100/23
f 85/100/23 29/27/23 34/33/23
f 101/101/80 85/100/80 84/84/80
f 101/101/100 84/84/100 102/102/100
f 87/85/101 90/91/101 102/102/101
f 101/101/82 92/90/82 100/99/82
f 102/102/102 84/84/102 87/85/102
f 102/102/103 90/91/103 101/101/103
f 5/30/1 1/3/1 3/2/1
f 3/2/1 4/29/1 5/30/1
f 2/1/2 6/8/2 7/4/2
f 9/5/3 2/1/3 1/3/3
f 10/7/4 11/11/4 7/4/4
f 9/5/5 12/13/104 6/8/5
f 11/11/7 10/7/7 13/14/7
f 13/14/7 14/9/7 11/11/7
f 16/12/8 10/7/105 6/8/8
f 16/12/10 17/20/10 13/14/10
f 20/17/12 19/16/12 21/18/12
f 22/19/13 21/18/13 17/20/13
f 23/21/15 20/17/15 22/19/15
f 22/19/16 16/12/16 12/13/16
f 23/21/18 24/22/18 26/24/18
f 24/22/19 12/13/19 9/5/19
f 27/25/21 25/23/21 26/24/21
f 28/26/22 26/24/22 9/5/22
f 31/31/2 30/28/2 4/29/2
f 31/31/4 11/11/4 15/10/4
f 37/36/28 33/35/28 36/34/28
f 34/33/28 35/55/28 36/34/28
f 37/36/29 36/34/29 38/37/29
f 33/35/30 37/36/30 41/39/30
f 38/37/31 42/43/31 43/41/31
f 41/39/32 37/36/106 39/38/32
f 13/14/34 43/41/34 42/43/34
f 42/43/34 45/53/34 14/9/34
f 39/38/35 43/41/107 46/44/35
f 46/44/37 43/41/37 13/14/37
f 47/45/39 48/46/39 21/18/39
f 48/46/40 46/44/40 17/20/40
f 49/47/42 50/48/42 48/46/42
f 44/42/43 46/44/43 48/46/43
f 52/50/45 50/48/45 49/47/45
f 41/39/46 44/42/46 50/48/46
f 53/51/48 54/52/48 52/50/48
f 54/52/49 40/40/49 41/39/49
f 35/55/29 55/54/29 56/56/29
f 56/56/31 55/54/31 45/53/31
f 60/59/54 1/3/54 59/58/54
f 5/30/54 58/80/54 59/58/54
f 60/59/55 59/58/55 61/60/55
f 1/3/56 60/59/56 63/62/56
f 61/60/57 64/65/57 65/63/57
f 60/59/58 62/61/108 66/64/58
f 69/67/59 65/63/59 64/65/59
f 64/65/59 67/78/59 68/66/59
f 62/61/60 65/63/109 70/68/60
f 70/68/62 65/63/62 69/67/62
f 72/70/64 74/73/64 75/72/64
f 74/73/65 70/68/65 71/69/65
f 76/74/67 77/75/67 74/73/67
f 66/64/68 70/68/68 74/73/68
f 79/77/70 77/75/70 76/74/70
f 63/62/71 66/64/71 77/75/71
f 27/25/73 28/26/73 79/77/73
f 28/26/74 8/6/74 63/62/74
f 58/80/55 80/79/55 81/81/55
f 81/81/57 80/79/57 67/78/57
f 34/33/79 33/35/79 84/84/79
f 84/84/79 85/100/79 34/33/79
f 83/83/80 86/88/80 87/85/80
f 88/86/81 83/83/81 33/35/81
f 89/87/82 90/91/82 87/85/82
f 91/89/83 86/88/110 83/83/83
f 90/91/84 89/87/84 69/67/84
f 69/67/84 68/66/84 90/91/84
f 93/92/85 89/87/111 86/88/85
f 93/92/87 71/69/87 69/67/87
f 94/93/89 73/71/89 75/72/89
f 95/94/90 75/72/90 71/69/90
f 96/95/92 94/93/92 95/94/92
f 95/94/93 93/92/93 91/89/93
f 96/95/95 97/96/95 99/98/95
f 97/96/96 91/89/96 88/86/96
f 53/51/98 98/97/98 99/98/98
f 54/52/99 99/98/99 88/86/99
f 101/101/80 100/99/80 85/100/80
f 101/101/82 90/91/82 92/90/82
