# Blender v2.79 (sub 0) OBJ File: ''
# www.blender.org
o missile
v 0.148353 0.061450 -0.341372
v 0.148353 0.061449 0.390404
v 0.160576 0.000000 -0.341372
v 0.113544 0.113544 0.207489
v 0.140027 0.058001 -0.381029
v 0.151564 0.000000 -0.381029
v 0.061450 0.148353 -0.341371
v 0.113544 0.113544 -0.341371
v 0.000000 0.160575 0.500000
v 0.061450 0.148352 0.500000
v 0.061450 0.148352 0.390404
v 0.058001 0.140027 -0.381028
v 0.107172 0.107172 -0.381028
v 0.000000 0.160576 -0.341371
v 0.000000 0.000001 -0.500000
v 0.000000 0.069759 -0.460343
v 0.026696 0.064449 -0.460343
v 0.000000 0.120591 -0.420686
v 0.046148 0.111412 -0.420686
v 0.000000 0.151564 -0.381028
v 0.049327 0.049328 -0.460343
v 0.085271 0.085271 -0.420686
v 0.064449 0.026696 -0.460343
v 0.111411 0.046149 -0.420686
v 0.069759 0.000001 -0.460343
v 0.120591 0.000001 -0.420686
v 0.000000 -0.000001 0.500000
v 0.113544 0.113543 0.500000
v 0.148353 0.061449 0.500000
v 0.160576 -0.000001 0.500000
v 0.113544 0.113543 0.409138
v 0.251198 0.251197 0.390591
v -0.160576 -0.000001 0.500000
v -0.148353 0.061449 0.390404
v -0.160576 0.000000 -0.341372
v -0.148353 0.061450 -0.341372
v -0.113544 0.113544 0.207489
v -0.113544 0.113544 -0.341371
v -0.140027 0.058001 -0.381029
v -0.151564 0.000000 -0.381029
v -0.061450 0.148353 -0.341371
v -0.107172 0.107172 -0.381028
v -0.061450 0.148352 0.390404
v -0.058001 0.140027 -0.381028
v -0.026696 0.064449 -0.460343
v -0.046148 0.111412 -0.420686
v -0.049327 0.049328 -0.460343
v -0.085271 0.085271 -0.420686
v -0.064449 0.026696 -0.460343
v -0.111411 0.046149 -0.420686
v -0.069759 0.000001 -0.460343
v -0.120591 0.000001 -0.420686
v -0.061450 0.148352 0.500000
v -0.113544 0.113543 0.500000
v -0.148353 0.061449 0.500000
v -0.113544 0.113543 0.409138
v -0.251198 0.251197 0.390591
v 0.148353 -0.061451 0.390404
v 0.148353 -0.061450 -0.341372
v 0.113544 -0.113544 0.207488
v 0.113544 -0.113544 -0.341372
v 0.140027 -0.058001 -0.381029
v 0.061450 -0.148353 -0.341372
v 0.107172 -0.107171 -0.381029
v 0.061450 -0.148354 0.390404
v 0.000000 -0.160577 0.500000
v 0.000000 -0.160576 -0.341372
v 0.058001 -0.140027 -0.381029
v 0.000000 -0.151564 -0.381029
v 0.026696 -0.064447 -0.460343
v 0.000000 -0.069757 -0.460343
v 0.000000 -0.120589 -0.420686
v 0.046148 -0.111410 -0.420686
v 0.049327 -0.049326 -0.460343
v 0.085271 -0.085269 -0.420686
v 0.064449 -0.026694 -0.460343
v 0.111411 -0.046147 -0.420686
v 0.061450 -0.148354 0.500000
v 0.113544 -0.113545 0.500000
v 0.148353 -0.061451 0.500000
v 0.113544 -0.113545 0.409138
v 0.251198 -0.251199 0.390591
v -0.148353 -0.061450 -0.341372
v -0.148353 -0.061451 0.390404
v -0.113544 -0.113544 0.207488
v -0.140027 -0.058001 -0.381029
v -0.061450 -0.148353 -0.341372
v -0.113544 -0.113544 -0.341372
v -0.107172 -0.107171 -0.381029
v -0.061450 -0.148354 0.500000
v -0.061450 -0.148354 0.390404
v -0.058001 -0.140027 -0.381029
v -0.026696 -0.064447 -0.460343
v -0.046148 -0.111410 -0.420686
v -0.049327 -0.049326 -0.460343
v -0.085271 -0.085269 -0.420686
v -0.064449 -0.026694 -0.460343
v -0.111411 -0.046147 -0.420686
v -0.113544 -0.113545 0.500000
v -0.148353 -0.061451 0.500000
v -0.113544 -0.113545 0.409138
v -0.251198 -0.251199 0.390591
vt 0.750000 0.875000
vt 0.750000 0.187816
vt 1.000000 0.875000
vt 0.500000 0.375000
vt 0.750000 0.906250
vt 1.000000 0.906250
vt 0.250000 0.875000
vt 0.500000 0.875000
vt 0.000000 0.062500
vt 0.250000 0.062500
vt 0.250000 0.187184
vt 0.250000 0.906250
vt 0.500000 0.906250
vt 0.000000 0.875000
vt 0.500000 1.000000
vt 0.000000 0.968750
vt 0.250000 0.968750
vt 0.000000 0.937500
vt 0.250000 0.937500
vt 0.000000 0.906250
vt 0.500000 0.968750
vt 0.500000 0.937500
vt 0.750000 0.968750
vt 0.750000 0.937500
vt 1.000000 0.968750
vt 1.000000 0.937500
vt 0.500000 0.000000
vt 0.500000 0.062500
vt 0.750000 0.062500
vt 1.000000 0.062500
vt 0.500000 0.156250
vt 0.500000 0.187500
vt 1.000000 0.062500
vt 0.750000 0.187816
vt 1.000000 0.875000
vt 0.750000 0.875000
vt 0.500000 0.375000
vt 0.500000 0.875000
vt 0.750000 0.906250
vt 1.000000 0.906250
vt 0.250000 0.875000
vt 0.500000 0.906250
vt 0.250000 0.187184
vt 0.250000 0.906250
vt 0.250000 0.968750
vt 0.250000 0.937500
vt 0.500000 0.968750
vt 0.500000 0.937500
vt 0.750000 0.968750
vt 0.750000 0.937500
vt 1.000000 0.968750
vt 1.000000 0.937500
vt 0.250000 0.062500
vt 0.500000 0.062500
vt 0.750000 0.062500
vt 0.500000 0.156250
vt 0.500000 0.187500
vt 0.750000 0.187816
vt 0.750000 0.875000
vt 0.500000 0.375000
vt 0.500000 0.875000
vt 0.750000 0.906250
vt 0.250000 0.875000
vt 0.500000 0.906250
vt 0.250000 0.187184
vt 0.000000 0.062500
vt 0.000000 0.875000
vt 0.250000 0.906250
vt 0.000000 0.906250
vt 0.250000 0.968750
vt 0.000000 0.968750
vt 0.000000 0.937500
vt 0.250000 0.937500
vt 0.500000 0.968750
vt 0.500000 0.937500
vt 0.750000 0.968750
vt 0.750000 0.937500
vt 0.250000 0.062500
vt 0.500000 0.062500
vt 0.750000 0.062500
vt 0.500000 0.156250
vt 0.500000 0.187500
vt 0.750000 0.875000
vt 0.750000 0.187816
vt 0.500000 0.375000
vt 0.750000 0.906250
vt 0.250000 0.875000
vt 0.500000 0.875000
vt 0.500000 0.906250
vt 0.250000 0.062500
vt 0.250000 0.187184
vt 0.250000 0.906250
vt 0.250000 0.968750
vt 0.250000 0.937500
vt 0.500000 0.968750
vt 0.500000 0.937500
vt 0.750000 0.968750
vt 0.750000 0.937500
vt 0.500000 0.062500
vt 0.750000 0.062500
vt 0.500000 0.156250
vt 0.500000 0.187500
vn 0.9808 0.1951 0.0000
vn 0.8315 0.5556 0.0000
vn 0.9573 0.1904 -0.2175
vn 0.5556 0.8315 0.0000
vn 0.8116 0.5423 -0.2175
vn 0.8115 0.5423 -0.2175
vn 0.1951 0.9808 0.0000
vn 0.5423 0.8116 -0.2175
vn 0.1904 0.9573 -0.2175
vn 0.0978 0.4918 -0.8652
vn 0.1214 0.6106 -0.7826
vn 0.1549 0.7786 -0.6081
vn 0.2786 0.4170 -0.8652
vn 0.3458 0.5176 -0.7826
vn 0.3459 0.5176 -0.7826
vn 0.4410 0.6601 -0.6081
vn 0.4170 0.2786 -0.8652
vn 0.5176 0.3458 -0.7826
vn 0.6601 0.4410 -0.6081
vn 0.4918 0.0978 -0.8652
vn 0.6106 0.1215 -0.7826
vn 0.7786 0.1549 -0.6081
vn 0.0000 0.0000 1.0000
vn 0.2808 -0.1531 0.9475
vn -0.4558 0.8415 -0.2900
vn 0.8415 -0.4558 -0.2900
vn -0.1531 0.2808 0.9475
vn -0.9808 0.1951 0.0000
vn -0.8315 0.5556 0.0000
vn -0.9573 0.1904 -0.2175
vn -0.5556 0.8315 0.0000
vn -0.8116 0.5423 -0.2175
vn -0.1951 0.9808 0.0000
vn -0.5423 0.8116 -0.2175
vn -0.1904 0.9573 -0.2175
vn -0.0978 0.4918 -0.8652
vn -0.1214 0.6106 -0.7826
vn -0.1549 0.7786 -0.6081
vn -0.2786 0.4170 -0.8652
vn -0.3458 0.5176 -0.7826
vn -0.4410 0.6601 -0.6081
vn -0.4170 0.2786 -0.8652
vn -0.5176 0.3458 -0.7826
vn -0.6601 0.4410 -0.6081
vn -0.4918 0.0978 -0.8652
vn -0.6106 0.1215 -0.7826
vn -0.6106 0.1214 -0.7826
vn -0.7786 0.1549 -0.6081
vn -0.2808 -0.1531 0.9475
vn 0.4558 0.8415 -0.2900
vn -0.8415 -0.4558 -0.2900
vn 0.1531 0.2808 0.9475
vn 0.9808 -0.1951 -0.0000
vn 0.8315 -0.5556 -0.0000
vn 0.9573 -0.1904 -0.2175
vn 0.5556 -0.8315 -0.0000
vn 0.8116 -0.5423 -0.2175
vn 0.1951 -0.9808 -0.0000
vn 0.5423 -0.8115 -0.2175
vn 0.1904 -0.9573 -0.2175
vn 0.0978 -0.4918 -0.8652
vn 0.1214 -0.6106 -0.7826
vn 0.1549 -0.7786 -0.6081
vn 0.2786 -0.4170 -0.8652
vn 0.3458 -0.5176 -0.7826
vn 0.4410 -0.6601 -0.6081
vn 0.4170 -0.2786 -0.8652
vn 0.5176 -0.3458 -0.7826
vn 0.6601 -0.4410 -0.6081
vn 0.4918 -0.0978 -0.8652
vn 0.6106 -0.1215 -0.7826
vn 0.6106 -0.1214 -0.7826
vn 0.7786 -0.1549 -0.6081
vn 0.2808 0.1531 0.9475
vn -0.4558 -0.8415 -0.2900
vn 0.8415 0.4558 -0.2900
vn -0.1531 -0.2808 0.9475
vn -0.9808 -0.1951 -0.0000
vn -0.8315 -0.5556 -0.0000
vn -0.9573 -0.1904 -0.2175
vn -0.5556 -0.8315 -0.0000
vn -0.8116 -0.5423 -0.2175
vn -0.1951 -0.9808 -0.0000
vn -0.5423 -0.8115 -0.2175
vn -0.1904 -0.9573 -0.2175
vn -0.0978 -0.4918 -0.8652
vn -0.1214 -0.6106 -0.7826
vn -0.1549 -0.7786 -0.6081
vn -0.2786 -0.4170 -0.8652
vn -0.3458 -0.5176 -0.7826
vn -0.3459 -0.5176 -0.7826
vn -0.4410 -0.6601 -0.6081
vn -0.4170 -0.2786 -0.8652
vn -0.5176 -0.3458 -0.7826
vn -0.6601 -0.4410 -0.6081
vn -0.4918 -0.0978 -0.8652
vn -0.6106 -0.1215 -0.7826
vn -0.7786 -0.1549 -0.6081
vn -0.2808 0.1531 0.9475
vn 0.4558 -0.8415 -0.2900
vn -0.8415 0.4558 -0.2900
vn 0.1531 -0.2808 0.9475
vn 0.5423 0.8115 -0.2175
vn 0.6106 0.1214 -0.7826
vn -0.8115 0.5423 -0.2175
vn -0.5423 0.8115 -0.2175
vn -0.3459 0.5176 -0.7826
vn 0.8115 -0.5423 -0.2175
vn 0.3459 -0.5176 -0.7826
vn -0.8115 -0.5423 -0.2175
vn -0.6106 -0.1214 -0.7826
s 1
f 1/1/1 2/2/1 3/3/1
f 1/1/2 4/4/2 2/2/2
f 5/5/3 3/3/3 6/6/3
f 7/7/4 4/4/4 8/8/4
f 5/5/5 8/8/5 1/1/6
f 9/9/7 10/10/7 11/11/7
f 12/12/8 8/8/8 13/13/8
f 12/12/9 14/14/9 7/7/9
f 15/15/10 16/16/10 17/17/10
f 17/17/11 18/18/11 19/19/11
f 19/19/12 20/20/12 12/12/12
f 15/15/13 17/17/13 21/21/13
f 21/21/14 19/19/14 22/22/15
f 19/19/16 13/13/16 22/22/16
f 15/15/17 21/21/17 23/23/17
f 21/21/18 24/24/18 23/23/18
f 22/22/19 5/5/19 24/24/19
f 15/15/20 23/23/20 25/25/20
f 25/25/21 24/24/21 26/26/21
f 26/26/22 5/5/22 6/6/22
f 9/9/23 27/27/23 10/10/23
f 10/10/23 27/27/23 28/28/23
f 28/28/23 27/27/23 29/29/23
f 29/29/23 27/27/23 30/30/23
f 31/31/2 29/29/2 2/2/2
f 31/31/24 2/2/24 32/32/24
f 4/4/25 11/11/25 32/32/25
f 31/31/4 10/10/4 28/28/4
f 32/32/26 2/2/26 4/4/26
f 32/32/27 11/11/27 31/31/27
f 33/33/28 34/34/28 35/35/28
f 36/36/29 37/37/29 38/38/29
f 35/35/30 39/39/30 40/40/30
f 37/37/31 41/41/31 38/38/31
f 39/39/32 38/38/32 42/42/32
f 43/43/33 9/9/33 14/14/33
f 38/38/34 44/44/34 42/42/34
f 44/44/35 14/14/35 20/20/35
f 15/15/36 45/45/36 16/16/36
f 45/45/37 18/18/37 16/16/37
f 46/46/38 20/20/38 18/18/38
f 15/15/39 47/47/39 45/45/39
f 47/47/40 46/46/40 45/45/40
f 42/42/41 46/46/41 48/48/41
f 15/15/42 49/49/42 47/47/42
f 50/50/43 47/47/43 49/49/43
f 39/39/44 48/48/44 50/50/44
f 15/15/45 51/51/45 49/49/45
f 51/51/46 50/50/46 49/49/47
f 52/52/48 39/39/48 50/50/48
f 9/9/23 53/53/23 27/27/23
f 53/53/23 54/54/23 27/27/23
f 54/54/23 55/55/23 27/27/23
f 55/55/23 33/33/23 27/27/23
f 55/55/29 56/56/29 34/34/29
f 56/56/49 57/57/49 34/34/49
f 37/37/50 57/57/50 43/43/50
f 56/56/31 53/53/31 43/43/31
f 57/57/51 37/37/51 34/34/51
f 57/57/52 56/56/52 43/43/52
f 30/30/53 58/58/53 3/3/53
f 59/59/54 60/60/54 61/61/54
f 3/3/55 62/62/55 6/6/55
f 60/60/56 63/63/56 61/61/56
f 59/59/57 64/64/57 62/62/57
f 65/65/58 66/66/58 67/67/58
f 61/61/59 68/68/59 64/64/59
f 68/68/60 67/67/60 69/69/60
f 15/15/61 70/70/61 71/71/61
f 70/70/62 72/72/62 71/71/62
f 73/73/63 69/69/63 72/72/63
f 15/15/64 74/74/64 70/70/64
f 74/74/65 73/73/65 70/70/65
f 64/64/66 73/73/66 75/75/66
f 15/15/67 76/76/67 74/74/67
f 77/77/68 74/74/68 76/76/68
f 62/62/69 75/75/69 77/77/69
f 15/15/70 25/25/70 76/76/70
f 25/25/71 77/77/71 76/76/72
f 26/26/73 62/62/73 77/77/73
f 66/66/23 78/78/23 27/27/23
f 78/78/23 79/79/23 27/27/23
f 79/79/23 80/80/23 27/27/23
f 80/80/23 30/30/23 27/27/23
f 80/80/54 81/81/54 58/58/54
f 81/81/74 82/82/74 58/58/74
f 60/60/75 82/82/75 65/65/75
f 81/81/56 78/78/56 65/65/56
f 82/82/76 60/60/76 58/58/76
f 82/82/77 81/81/77 65/65/77
f 83/83/78 84/84/78 35/35/78
f 83/83/79 85/85/79 84/84/79
f 86/86/80 35/35/80 40/40/80
f 87/87/81 85/85/81 88/88/81
f 89/89/82 83/83/82 86/86/82
f 66/66/83 90/90/83 91/91/83
f 92/92/84 88/88/84 89/89/84
f 92/92/85 67/67/85 87/87/85
f 15/15/86 71/71/86 93/93/86
f 93/93/87 72/72/87 94/94/87
f 94/94/88 69/69/88 92/92/88
f 15/15/89 93/93/89 95/95/89
f 95/95/90 94/94/90 96/96/91
f 94/94/92 89/89/92 96/96/92
f 15/15/93 95/95/93 97/97/93
f 95/95/94 98/98/94 97/97/94
f 96/96/95 86/86/95 98/98/95
f 15/15/96 97/97/96 51/51/96
f 51/51/97 98/98/97 52/52/97
f 52/52/98 86/86/98 40/40/98
f 66/66/23 27/27/23 90/90/23
f 90/90/23 27/27/23 99/99/23
f 99/99/23 27/27/23 100/100/23
f 100/100/23 27/27/23 33/33/23
f 101/101/79 100/100/79 84/84/79
f 101/101/99 84/84/99 102/102/99
f 85/85/100 91/91/100 102/102/100
f 101/101/81 90/90/81 99/99/81
f 102/102/101 84/84/101 85/85/101
f 102/102/102 91/91/102 101/101/102
f 30/30/1 3/3/1 2/2/1
f 2/2/1 29/29/1 30/30/1
f 1/1/2 8/8/2 4/4/2
f 5/5/3 1/1/3 3/3/3
f 7/7/4 11/11/4 4/4/4
f 5/5/5 13/13/5 8/8/5
f 11/11/7 7/7/7 14/14/7
f 14/14/7 9/9/7 11/11/7
f 12/12/8 7/7/103 8/8/8
f 12/12/9 20/20/9 14/14/9
f 17/17/11 16/16/11 18/18/11
f 19/19/12 18/18/12 20/20/12
f 21/21/14 17/17/14 19/19/14
f 19/19/16 12/12/16 13/13/16
f 21/21/18 22/22/18 24/24/18
f 22/22/19 13/13/19 5/5/19
f 25/25/21 23/23/104 24/24/21
f 26/26/22 24/24/22 5/5/22
f 31/31/2 28/28/2 29/29/2
f 31/31/4 11/11/4 10/10/4
f 36/36/28 35/35/28 34/34/28
f 33/33/28 55/55/28 34/34/28
f 36/36/29 34/34/29 37/37/29
f 35/35/30 36/36/30 39/39/30
f 37/37/31 43/43/31 41/41/31
f 39/39/32 36/36/105 38/38/32
f 14/14/33 41/41/33 43/43/33
f 43/43/33 53/53/33 9/9/33
f 38/38/34 41/41/106 44/44/34
f 44/44/35 41/41/35 14/14/35
f 45/45/37 46/46/37 18/18/37
f 46/46/38 44/44/38 20/20/38
f 47/47/40 48/48/107 46/46/40
f 42/42/41 44/44/41 46/46/41
f 50/50/43 48/48/43 47/47/43
f 39/39/44 42/42/44 48/48/44
f 51/51/46 52/52/46 50/50/46
f 52/52/48 40/40/48 39/39/48
f 55/55/29 54/54/29 56/56/29
f 56/56/31 54/54/31 53/53/31
f 59/59/53 3/3/53 58/58/53
f 30/30/53 80/80/53 58/58/53
f 59/59/54 58/58/54 60/60/54
f 3/3/55 59/59/55 62/62/55
f 60/60/56 65/65/56 63/63/56
f 59/59/57 61/61/108 64/64/57
f 67/67/58 63/63/58 65/65/58
f 65/65/58 78/78/58 66/66/58
f 61/61/59 63/63/59 68/68/59
f 68/68/60 63/63/60 67/67/60
f 70/70/62 73/73/62 72/72/62
f 73/73/63 68/68/63 69/69/63
f 74/74/65 75/75/109 73/73/65
f 64/64/66 68/68/66 73/73/66
f 77/77/68 75/75/68 74/74/68
f 62/62/69 64/64/69 75/75/69
f 25/25/71 26/26/71 77/77/71
f 26/26/73 6/6/73 62/62/73
f 80/80/54 79/79/54 81/81/54
f 81/81/56 79/79/56 78/78/56
f 33/33/78 35/35/78 84/84/78
f 84/84/78 100/100/78 33/33/78
f 83/83/79 88/88/79 85/85/79
f 86/86/80 83/83/80 35/35/80
f 87/87/81 91/91/81 85/85/81
f 89/89/82 88/88/110 83/83/82
f 91/91/83 87/87/83 67/67/83
f 67/67/83 66/66/83 91/91/83
f 92/92/84 87/87/84 88/88/84
f 92/92/85 69/69/85 67/67/85
f 93/93/87 71/71/87 72/72/87
f 94/94/88 72/72/88 69/69/88
f 95/95/90 93/93/90 94/94/90
f 94/94/92 92/92/92 89/89/92
f 95/95/94 96/96/94 98/98/94
f 96/96/95 89/89/95 86/86/95
f 51/51/97 97/97/111 98/98/97
f 52/52/98 98/98/98 86/86/98
f 101/101/79 99/99/79 100/100/79
f 101/101/81 91/91/81 90/90/81
