# Blender v2.79 (sub 0) OBJ File: ''
# www.blender.org
o trace_Cube.001
v 0.100000 0.100000 0.500000
v 0.100000 -0.100000 0.500000
v -0.100000 0.100000 0.500000
v -0.100000 -0.100000 0.500000
v 0.100000 0.100000 -0.500000
v 0.100000 -0.100000 -0.500000
v -0.100000 0.100000 -0.500000
v -0.100000 -0.100000 -0.500000
vt 0.000000 1.000000
vt 1.000000 0.000000
vt 1.000000 1.000000
vt 0.000000 0.000000
vt 0.000000 0.000000
vt 1.000000 1.000000
vt 1.000000 0.000000
vt 0.000000 1.000000
vn 0.0000 1.0000 0.0000
vn -1.0000 0.0000 0.0000
vn 0.0000 -0.0000 -1.0000
vn 0.0000 -0.0000 1.0000
vn 1.0000 0.0000 0.0000
vn 0.0000 -1.0000 0.0000
s off
f 7/1/1 1/2/1 5/3/1
f 7/1/2 4/4/2 3/5/2
f 6/6/3 7/1/3 5/3/3
f 4/4/4 1/2/4 3/5/4
f 6/6/5 1/2/5 2/7/5
f 8/8/6 2/7/6 4/4/6
f 7/1/1 3/5/1 1/2/1
f 7/1/2 8/8/2 4/4/2
f 6/6/3 8/8/3 7/1/3
f 4/4/4 2/7/4 1/2/4
f 6/6/5 5/3/5 1/2/5
f 8/8/6 6/6/6 2/7/6
