# Blender v2.79 (sub 0) OBJ File: ''
# www.blender.org
o trace_o
v 0.198912 0.100000 -1.000000
v 0.198912 -0.100000 -1.000000
v 0.566454 0.100000 -0.847759
v 0.566454 -0.100000 -0.847759
v 0.847759 0.100000 -0.566454
v 0.847759 -0.100000 -0.566454
v 1.000000 0.100000 -0.198912
v 1.000000 -0.100000 -0.198912
v 1.000000 0.100000 0.198912
v 1.000000 -0.100000 0.198912
v 0.847759 0.100000 0.566454
v 0.847759 -0.100000 0.566454
v 0.566454 0.100000 0.847759
v 0.566454 -0.100000 0.847759
v 0.198912 0.100000 1.000000
v 0.198912 -0.100000 1.000000
v -0.198913 0.100000 1.000000
v -0.198913 -0.100000 1.000000
v -0.566455 0.100000 0.847759
v -0.566455 -0.100000 0.847759
v -0.847759 0.100000 0.566454
v -0.847759 -0.100000 0.566454
v -1.000000 0.100000 0.198911
v -1.000000 -0.100000 0.198911
v -1.000000 0.100000 -0.198913
v -1.000000 -0.100000 -0.198913
v -0.847758 0.100000 -0.566455
v -0.847758 -0.100000 -0.566455
v -0.566453 0.100000 -0.847760
v -0.566453 -0.100000 -0.847760
v -0.198911 0.100000 -1.000000
v -0.198911 -0.100000 -1.000000
vt 0.783227 0.923880
vt 0.599456 1.000000
vt 0.599456 1.000000
vt 0.923880 0.783227
vt 0.783227 0.923880
vt 1.000000 0.599456
vt 0.923880 0.783227
vt 1.000000 0.400544
vt 1.000000 0.599456
vt 0.923880 0.216773
vt 1.000000 0.400544
vt 0.783227 0.076121
vt 0.923880 0.216773
vt 0.599456 0.000000
vt 0.783227 0.076121
vt 0.400544 0.000000
vt 0.599456 0.000000
vt 0.216773 0.076121
vt 0.400544 0.000000
vt 0.076121 0.216773
vt 0.216773 0.076121
vt 0.000000 0.400544
vt 0.076121 0.216773
vt 0.000000 0.599457
vt 0.000000 0.400544
vt 0.076121 0.783228
vt 0.000000 0.599457
vt 0.216773 0.923880
vt 0.076121 0.783228
vt 0.400545 1.000000
vt 0.216773 0.923880
vt 0.400545 1.000000
vn 0.3827 0.0000 -0.9239
vn 0.7071 0.0000 -0.7071
vn 0.9239 0.0000 -0.3827
vn 1.0000 0.0000 -0.0000
vn 0.9239 0.0000 0.3827
vn 0.7071 0.0000 0.7071
vn 0.3827 0.0000 0.9239
vn -0.0000 0.0000 1.0000
vn -0.3827 0.0000 0.9239
vn -0.7071 0.0000 0.7071
vn -0.9239 0.0000 0.3827
vn -1.0000 0.0000 -0.0000
vn -0.9239 0.0000 -0.3827
vn -0.7071 0.0000 -0.7071
vn -0.3827 0.0000 -0.9239
vn 0.0000 1.0000 -0.0000
vn 0.0000 0.0000 -1.0000
s off
f 3/1/1 2/2/1 1/3/1
f 5/4/2 4/5/2 3/1/2
f 7/6/3 6/7/3 5/4/3
f 9/8/4 8/9/4 7/6/4
f 11/10/5 10/11/5 9/8/5
f 13/12/6 12/13/6 11/10/6
f 15/14/7 14/15/7 13/12/7
f 17/16/8 16/17/8 15/14/8
f 19/18/9 18/19/9 17/16/9
f 21/20/10 20/21/10 19/18/10
f 23/22/11 22/23/11 21/20/11
f 25/24/12 24/25/12 23/22/12
f 27/26/13 26/27/13 25/24/13
f 29/28/14 28/29/14 27/26/14
f 31/30/15 30/31/15 29/28/15
f 15/14/16 11/10/16 3/1/16
f 1/3/17 32/32/17 31/30/17
f 3/1/1 4/5/1 2/2/1
f 5/4/2 6/7/2 4/5/2
f 7/6/3 8/9/3 6/7/3
f 9/8/4 10/11/4 8/9/4
f 11/10/5 12/13/5 10/11/5
f 13/12/6 14/15/6 12/13/6
f 15/14/7 16/17/7 14/15/7
f 17/16/8 18/19/8 16/17/8
f 19/18/9 20/21/9 18/19/9
f 21/20/10 22/23/10 20/21/10
f 23/22/11 24/25/11 22/23/11
f 25/24/12 26/27/12 24/25/12
f 27/26/13 28/29/13 26/27/13
f 29/28/14 30/31/14 28/29/14
f 31/30/15 32/32/15 30/31/15
f 3/1/16 1/3/16 31/30/16
f 31/30/16 29/28/16 27/26/16
f 27/26/16 25/24/16 23/22/16
f 23/22/16 21/20/16 19/18/16
f 19/18/16 17/16/16 15/14/16
f 15/14/16 13/12/16 11/10/16
f 11/10/16 9/8/16 7/6/16
f 7/6/16 5/4/16 3/1/16
f 3/1/16 31/30/16 19/18/16
f 27/26/16 23/22/16 19/18/16
f 19/18/16 15/14/16 3/1/16
f 11/10/16 7/6/16 3/1/16
f 31/30/16 27/26/16 19/18/16
f 1/3/17 2/2/17 32/32/17
